<svg width="120" height="57" viewBox="0 0 120 57" fill="none" xmlns="http://www.w3.org/2000/svg">
<path d="M54.8889 30.3607V27.8474H61.489V30.3607H54.8889ZM61.8568 32.9558L58.6283 23.8424L58.097 21.8195H58.3422L57.7905 23.8424L54.562 32.9558H51.2722L56.3397 19.061H60.2629L65.3509 32.9558H61.8568Z" fill="#111111"/>
<path d="M69.2834 32.9762C68.3707 32.9762 67.5738 32.7514 66.8927 32.3019C66.2115 31.8387 65.6871 31.1849 65.3193 30.3403C64.9515 29.4821 64.7676 28.474 64.7676 27.3161C64.7676 25.4907 65.1762 24.0876 65.9936 23.1068C66.8245 22.1124 67.9211 21.6152 69.2834 21.6152C70.5639 21.6152 71.5379 22.1056 72.2054 23.0864C72.8865 24.0672 73.227 25.4703 73.227 27.2957C73.227 29.1347 72.866 30.5446 72.1441 31.5254C71.4357 32.4926 70.4821 32.9762 69.2834 32.9762ZM70.0394 30.4424C70.7341 30.4424 71.2586 30.1768 71.6128 29.6455C71.967 29.1006 72.1441 28.3174 72.1441 27.2957C72.1441 26.2876 71.9602 25.5112 71.5924 24.9663C71.2382 24.4214 70.7205 24.1489 70.0394 24.1489C69.3719 24.1489 68.8611 24.4214 68.5069 24.9663C68.1527 25.4975 67.9756 26.2808 67.9756 27.3161C67.9756 28.3105 68.1527 29.0802 68.5069 29.6251C68.8611 30.17 69.3719 30.4424 70.0394 30.4424ZM75.2704 33.3236C75.2704 34.2907 75.0524 35.1081 74.6165 35.7756C74.1942 36.4431 73.6085 36.9471 72.8592 37.2877C72.11 37.6282 71.2586 37.7985 70.305 37.7985C68.9019 37.7985 67.7304 37.4784 66.7905 36.8381C65.8505 36.2115 65.2852 35.2307 65.0945 33.8957H68.2208C68.2889 34.3861 68.5069 34.7607 68.8747 35.0195C69.2561 35.2784 69.7193 35.4078 70.2642 35.4078C70.8227 35.4078 71.2722 35.2579 71.6128 34.9582C71.967 34.6585 72.1441 34.1273 72.1441 33.3644V21.9625H75.2704V33.3236Z" fill="#111111"/>
<path d="M76.3682 32.9558V21.9625H79.4945V32.9558H76.3682ZM76.3682 20.8591V18.2437H79.4945V20.8591H76.3682Z" fill="#111111"/>
<path d="M80.5746 32.9558V18.2437H83.7009V32.9558H80.5746Z" fill="#111111"/>
<path d="M93.69 26.2944L91.9123 27.4387C91.9123 26.3626 91.7216 25.5384 91.3402 24.9663C90.9588 24.3941 90.4139 24.1081 89.7055 24.1081C88.9835 24.1081 88.4318 24.3941 88.0504 24.9663C87.669 25.5384 87.4783 26.3694 87.4783 27.4591C87.4783 28.5353 87.6758 29.3595 88.0708 29.9316C88.4795 30.5037 89.0653 30.7898 89.8281 30.7898C90.3458 30.7898 90.7749 30.674 91.1154 30.4424C91.456 30.2109 91.708 29.8431 91.8715 29.339H95.1408C94.8547 30.6059 94.2349 31.5799 93.2814 32.261C92.3278 32.9421 91.1767 33.2827 89.8281 33.2827C88.6838 33.2827 87.6962 33.0511 86.8653 32.588C86.0479 32.1112 85.4145 31.4369 84.9649 30.565C84.529 29.6932 84.3111 28.6579 84.3111 27.4591C84.3111 26.2059 84.529 25.1502 84.9649 24.292C85.4145 23.4201 86.0411 22.7595 86.8448 22.3099C87.6622 21.8468 88.6157 21.6152 89.7055 21.6152C90.7953 21.6152 91.742 21.8468 92.5458 22.3099C93.3495 22.7731 93.9693 23.4406 94.4052 24.3124C94.8411 25.1706 95.0591 26.1991 95.0591 27.3978V28.0926H85.5779V26.2944H93.69Z" fill="#111111"/>
<path d="M104.466 21.6152C105.42 21.6152 106.237 21.8536 106.918 22.3303C107.613 22.7935 108.144 23.461 108.512 24.3328C108.88 25.2047 109.064 26.24 109.064 27.4387C109.064 29.305 108.642 30.7489 107.797 31.7706C106.966 32.7787 105.856 33.2827 104.466 33.2827C103.268 33.2827 102.321 32.7855 101.626 31.791C100.945 30.783 100.605 29.3322 100.605 27.4387C100.605 26.2127 100.761 25.1706 101.074 24.3124C101.401 23.4406 101.851 22.7731 102.423 22.3099C103.009 21.8468 103.69 21.6152 104.466 21.6152ZM103.792 24.1489C103.111 24.1489 102.593 24.435 102.239 25.0071C101.885 25.5656 101.708 26.3762 101.708 27.4387C101.708 28.5149 101.885 29.339 102.239 29.9112C102.593 30.4697 103.111 30.7489 103.792 30.7489C104.473 30.7489 104.991 30.4697 105.345 29.9112C105.699 29.339 105.876 28.5149 105.876 27.4387C105.876 26.3762 105.699 25.5656 105.345 25.0071C104.991 24.435 104.473 24.1489 103.792 24.1489ZM101.708 32.9558H98.5816V18.2437H101.708V32.9558Z" fill="#111111"/>
<path d="M110.625 37.7985C110.312 37.7985 110.012 37.7644 109.726 37.6963C109.44 37.6282 109.229 37.5601 109.093 37.492V35.1217H109.726C110.012 35.1217 110.264 35.0945 110.482 35.04C110.7 34.9991 110.904 34.9106 111.095 34.7743C111.3 34.6381 111.49 34.427 111.667 34.1409C111.844 33.8548 112.022 33.4802 112.199 33.0171L112.423 32.4654L108.173 21.9625H111.504L113.609 27.8065L114.16 30.0133H113.874L114.467 27.8065L116.469 21.9625H119.657L114.998 33.814C114.712 34.5632 114.412 35.1898 114.099 35.6938C113.799 36.2115 113.479 36.6202 113.139 36.9198C112.812 37.2332 112.437 37.4579 112.015 37.5942C111.606 37.7304 111.143 37.7985 110.625 37.7985Z" fill="#111111"/>
<path d="M52.3552 51.4639V37.5691H55.6245V51.4639H52.3552ZM57.6883 48.8075C58.4784 48.8075 59.1527 48.6372 59.7112 48.2967C60.2834 47.9561 60.7193 47.4725 61.019 46.8459C61.3187 46.2056 61.4685 45.436 61.4685 44.5369C61.4685 43.6242 61.3187 42.8477 61.019 42.2075C60.7193 41.5672 60.2834 41.0768 59.7112 40.7363C59.1527 40.3957 58.4784 40.2254 57.6883 40.2254H54.7459V37.5691H57.6883C59.1595 37.5691 60.4264 37.8552 61.489 38.4273C62.5515 38.9858 63.3688 39.7827 63.941 40.818C64.5267 41.8533 64.8196 43.0929 64.8196 44.5369C64.8196 45.9673 64.5267 47.2001 63.941 48.2354C63.3688 49.2707 62.5515 50.0676 61.489 50.6261C60.4264 51.1846 59.1595 51.4639 57.6883 51.4639H54.7459V48.8075H57.6883Z" fill="#111111"/>
<path d="M74.5656 44.8025L72.7879 45.9468C72.7879 44.8707 72.5972 44.0465 72.2157 43.4744C71.8343 42.9022 71.2894 42.6162 70.5811 42.6162C69.8591 42.6162 69.3074 42.9022 68.9259 43.4744C68.5445 44.0465 68.3538 44.8775 68.3538 45.9673C68.3538 47.0434 68.5513 47.8676 68.9464 48.4397C69.355 49.0118 69.9408 49.2979 70.7037 49.2979C71.2213 49.2979 71.6504 49.1821 71.991 48.9505C72.3315 48.719 72.5835 48.3512 72.747 47.8471H76.0164C75.7303 49.114 75.1105 50.088 74.1569 50.7691C73.2033 51.4502 72.0523 51.7908 70.7037 51.7908C69.5594 51.7908 68.5718 51.5592 67.7408 51.0961C66.9235 50.6193 66.29 49.945 65.8405 49.0731C65.4046 48.2013 65.1866 47.166 65.1866 45.9673C65.1866 44.714 65.4046 43.6583 65.8405 42.8001C66.29 41.9282 66.9166 41.2676 67.7204 40.818C68.5377 40.3549 69.4913 40.1233 70.5811 40.1233C71.6708 40.1233 72.6176 40.3549 73.4213 40.818C74.225 41.2812 74.8448 41.9487 75.2808 42.8205C75.7167 43.6787 75.9346 44.7072 75.9346 45.906V46.6007H66.4535V44.8025H74.5656Z" fill="#111111"/>
<path d="M79.3453 43.5152C79.3453 43.8149 79.4679 44.0533 79.7131 44.2304C79.9583 44.3939 80.2852 44.5233 80.6939 44.6186C81.1025 44.714 81.5453 44.8025 82.022 44.8843C82.5124 44.9524 82.996 45.0477 83.4728 45.1703C83.9632 45.2929 84.4059 45.47 84.801 45.7016C85.2097 45.9196 85.5366 46.2261 85.7818 46.6211C86.027 47.0025 86.1496 47.5066 86.1496 48.1332C86.1496 48.8416 85.9385 49.475 85.5162 50.0335C85.1075 50.592 84.5354 51.0279 83.7998 51.3413C83.0778 51.641 82.24 51.7908 81.2864 51.7908C79.9106 51.7908 78.7527 51.4775 77.8127 50.8509C76.8728 50.2106 76.3007 49.2094 76.0963 47.8471H79.2227C79.3044 48.3512 79.536 48.7394 79.9174 49.0118C80.2988 49.2843 80.7824 49.4205 81.3682 49.4205C81.9131 49.4205 82.3217 49.3183 82.5942 49.114C82.8802 48.9097 83.0233 48.644 83.0233 48.3171C83.0233 48.0174 82.9007 47.7858 82.6555 47.6224C82.4239 47.4589 82.1038 47.3295 81.6951 47.2341C81.3001 47.1388 80.8641 47.057 80.3874 46.9889C79.9242 46.9072 79.4542 46.805 78.9775 46.6824C78.5143 46.5598 78.0852 46.3895 77.6901 46.1716C77.2951 45.94 76.975 45.6267 76.7298 45.2316C76.4846 44.823 76.362 44.3053 76.362 43.6787C76.362 43.0657 76.5254 42.4868 76.8524 41.9419C77.1793 41.397 77.6697 40.9611 78.3236 40.6341C78.9911 40.2936 79.8152 40.1233 80.796 40.1233C81.6815 40.1233 82.4716 40.2663 83.1663 40.5524C83.8747 40.8248 84.4536 41.2539 84.9032 41.8397C85.3663 42.4255 85.6456 43.1815 85.7409 44.1078H82.635C82.5397 43.5357 82.3285 43.127 82.0016 42.8818C81.6747 42.6366 81.2388 42.514 80.6939 42.514C80.2852 42.514 79.9583 42.6094 79.7131 42.8001C79.4679 42.9772 79.3453 43.2155 79.3453 43.5152Z" fill="#111111"/>
<path d="M86.7007 51.4639V40.4706H89.827V51.4639H86.7007ZM86.7007 39.3672V36.7518H89.827V39.3672H86.7007Z" fill="#111111"/>
<path d="M94.9529 51.4843C94.0402 51.4843 93.2433 51.2595 92.5622 50.81C91.8811 50.3468 91.3566 49.693 90.9888 48.8484C90.621 47.9902 90.4371 46.9821 90.4371 45.8242C90.4371 43.9988 90.8458 42.5957 91.6631 41.6149C92.4941 40.6205 93.5907 40.1233 94.9529 40.1233C96.2334 40.1233 97.2074 40.6137 97.8749 41.5945C98.556 42.5753 98.8966 43.9784 98.8966 45.8038C98.8966 47.6428 98.5356 49.0527 97.8136 50.0335C97.1052 51.0007 96.1517 51.4843 94.9529 51.4843ZM95.709 48.9505C96.4037 48.9505 96.9282 48.6849 97.2823 48.1536C97.6365 47.6087 97.8136 46.8255 97.8136 45.8038C97.8136 44.7957 97.6297 44.0193 97.2619 43.4744C96.9077 42.9295 96.3901 42.657 95.709 42.657C95.0415 42.657 94.5306 42.9295 94.1764 43.4744C93.8223 44.0056 93.6452 44.7889 93.6452 45.8242C93.6452 46.8187 93.8223 47.5883 94.1764 48.1332C94.5306 48.6781 95.0415 48.9505 95.709 48.9505ZM100.94 51.8317C100.94 52.7988 100.722 53.6162 100.286 54.2837C99.8638 54.9512 99.278 55.4552 98.5288 55.7958C97.7795 56.1363 96.9282 56.3066 95.9746 56.3066C94.5715 56.3066 93.4 55.9865 92.46 55.3462C91.5201 54.7196 90.9548 53.7388 90.7641 52.4038H93.8904C93.9585 52.8942 94.1764 53.2688 94.5442 53.5276C94.9257 53.7865 95.3888 53.9159 95.9337 53.9159C96.4922 53.9159 96.9418 53.766 97.2823 53.4663C97.6365 53.1666 97.8136 52.6354 97.8136 51.8725V40.4706H100.94V51.8317Z" fill="#111111"/>
<path d="M102.038 51.4639V40.4706H105.164V51.4639H102.038ZM105.164 45.1499H104.326C104.394 43.992 104.606 43.0453 104.96 42.3097C105.314 41.5741 105.777 41.0292 106.349 40.675C106.935 40.3072 107.602 40.1233 108.352 40.1233C109.06 40.1233 109.687 40.2663 110.232 40.5524C110.79 40.8385 111.226 41.2812 111.539 41.8806C111.866 42.4663 112.03 43.2155 112.03 44.1282V51.4639H108.903V44.7617C108.903 44.2985 108.842 43.9103 108.719 43.597C108.597 43.2837 108.406 43.0521 108.147 42.9022C107.902 42.7388 107.589 42.657 107.207 42.657C106.894 42.657 106.608 42.7183 106.349 42.8409C106.104 42.9635 105.893 43.1406 105.716 43.3722C105.539 43.5902 105.402 43.8558 105.307 44.1691C105.212 44.4688 105.164 44.7957 105.164 45.1499Z" fill="#111111"/>
<path fill-rule="evenodd" clip-rule="evenodd" d="M48.1902 2.46454L49.9976 0.890566C49.5548 0.382185 48.9185 0.0837678 48.2445 0.0684878C47.5705 0.0532075 46.9213 0.322477 46.456 0.810271L48.1902 2.46454ZM50.686 8.95934C51.6337 10.0383 52.568 11.0978 53.2846 11.9012L56.8618 8.71072C55.7202 7.43073 54.0063 5.47821 52.5728 3.83993C51.8571 3.02202 51.2132 2.28452 50.7482 1.75149L50.1983 1.12099L50.0493 0.949948L50.0106 0.905571L50.0008 0.894306L49.9984 0.891484L49.9978 0.890786L49.9976 0.890616L48.1902 2.46454L46.456 0.810294L46.4558 0.81046L46.4551 0.811222L46.452 0.814445L46.4395 0.82758L46.3897 0.879696L46.198 1.08003C46.0318 1.25355 45.7923 1.5032 45.4999 1.8069C44.9147 2.41461 44.1191 3.23725 43.2757 4.09868C41.5301 5.88157 39.7494 7.65437 39.0962 8.18662L42.124 11.9026C42.9002 11.2702 44.4635 9.72301 45.9285 8.23802C45.75 11.6474 44.3505 15.2915 41.9758 18.7533C40.3276 21.1561 38.2534 23.4029 35.9134 25.3395C37.435 18.457 36.2753 11.205 30.5 5.42969C26.6596 1.5893 22.0479 0.199522 17.5882 0.622599C13.1981 1.03908 9.07231 3.19306 5.95555 6.23062C2.83907 9.26791 0.586409 13.3314 0.14585 17.7355C-0.302393 22.2164 1.15086 26.8585 5.11101 30.8187C8.5679 34.2756 12.5603 36.0645 16.6843 36.6066C18.8386 36.8434 21.2604 36.8231 23.8693 36.3819C24.218 36.3183 24.5661 36.2476 24.9132 36.17L24.896 36.1882C27.4449 35.6572 30.1562 34.719 32.9588 33.2289C32.9902 33.1709 33.0215 33.1128 33.0524 33.0545C38.152 30.2695 42.7172 26.1463 45.9286 21.4647C48.5484 17.6455 50.3521 13.3229 50.686 8.95934ZM21.0792 39.5867C23.8354 39.4308 26.8141 38.8696 29.9226 37.7325C23.0629 46.1247 11.4458 51.3856 1.05808 51.3856V46.5923C7.9011 46.5923 15.324 43.9322 21.0792 39.5867ZM29.4556 29.5171C32.8466 22.177 32.7541 14.4626 27.1106 8.8191C24.3078 6.01626 21.1163 5.10277 18.0409 5.39452C14.896 5.69287 11.755 7.2718 9.30106 9.66336C6.84687 12.0552 5.22505 15.1171 4.91539 18.2126C4.61342 21.2313 5.53421 24.4631 8.50042 27.4293C14.1939 33.1228 22.0535 33.107 29.4556 29.5171Z" fill="#FF7A00"/>
</svg>
